<?xml version="1.0" encoding="UTF-8"?>
<svg xmlns="http://www.w3.org/2000/svg" version="1.1" viewBox="0 0 236.7053691 168.638104">
  <!-- Generator: Adobe Illustrator 28.7.1, SVG Export Plug-In . SVG Version: 1.2.0 Build 142)  -->
  <g>
    <g id="Ebene_1">
      <path id="_x21_" d="M182.1458974,109.3429778c1.7080078-8.5410156,9.7353516-14.8613281,17.9345703-14.8613281,8.5400391,0,14.6894531,6.3203125,13.1523438,14.8613281-1.5380859,8.8808594-9.7363281,15.2011719-18.2763672,15.2011719-8.3701172,0-14.3486328-6.3203125-12.8105469-15.2011719ZM193.0775381,80.9894622l9.7353516-76.1806641h26.6464844l-16.9101562,76.1806641h-19.4716797Z" fill="#fff"/>
      <path id="O" d="M98.6244131,82.6964934c0-25.2792969,20.4970703-42.0180664,43.2148437-42.0180664,22.7167969,0,43.3847656,16.7387695,43.3847656,42.0180664,0,25.109375-20.6679688,41.8476562-43.3847656,41.8476562-22.7177734,0-43.2148437-16.7382812-43.2148437-41.8476562ZM159.4320302,82.6964934c0-10.9311523-7.8574219-18.6176758-17.5927734-18.6176758-9.7363281,0-17.59375,7.6865234-17.59375,18.6176758,0,10.9316406,7.8574219,18.4472656,17.59375,18.4472656,9.7353516,0,17.5927734-7.515625,17.5927734-18.4472656Z" fill="#fff"/>
      <path id="G" d="M70.615624,42.7282317h25.1083984v70.2006836c0,33.8203125-17.7636719,50.9003906-46.6303711,50.9003906-18.1054688,0-33.4780273-10.5898438-39.7978516-25.6210938l20.8383789-8.3691406c2.9038086,6.4902344,10.5898438,11.7871094,18.9594727,11.7871094,13.1523438,0,21.5219727-7.3457031,21.5219727-25.6210938v-2.3925781c-5.9785156,7.515625-16.5683594,10.9316406-24.7670898,10.9316406-19.8134766,0-38.6025391-16.2265625-38.6025391-42.0175781,0-25.7924805,18.7890625-41.8481445,38.6025391-41.8481445,8.1987305,0,18.7885742,3.2451172,24.7670898,10.7607422v-8.7109375ZM69.5907216,82.5265715c0-10.2490234-8.7114258-18.4477539-18.2763672-18.4477539-9.9067383,0-18.4472656,8.3696289-18.4472656,18.4477539,0,10.0761719,8.5405273,18.6171875,18.4472656,18.6171875,9.7358398,0,18.2763672-8.3691406,18.2763672-18.6171875Z" fill="#fff"/>
    </g>
  </g>
</svg>