<?xml version="1.0" encoding="UTF-8"?>
<svg xmlns="http://www.w3.org/2000/svg" version="1.1" viewBox="0 0 432.5317 210.2119141">
  <!-- Generator: Adobe Illustrator 28.6.0, SVG Export Plug-In . SVG Version: 1.2.0 Build 709)  -->
  <g>
    <g id="Logo">
      <g>
        <g id="bogdol">
          <rect id="l" x="357.608391" y="53.0664062" width="15.9956055" height="77.9243164" fill="#fff"/>
          <path id="o" d="M326.1041964,79.2211914c-14.3745117,0-27.34375,10.5917969-27.34375,26.5874023,0,15.887207,12.9692383,26.4790039,27.34375,26.4790039s27.4516602-10.5917969,27.4516602-26.4790039c0-15.9956055-13.0771484-26.5874023-27.4516602-26.5874023ZM326.1041964,117.480957c-6.1606445,0-11.1318359-4.7553711-11.1318359-11.6723633s4.9711914-11.7807617,11.1318359-11.7807617,11.1318359,4.8637695,11.1318359,11.7807617-4.9711914,11.6723633-11.1318359,11.6723633Z" fill="#fff"/>
          <path id="d" d="M278.7118183,86.0302734c-3.6748047-4.7553711-10.4833984-6.809082-15.6713867-6.809082-12.5371094,0-24.4257812,10.159668-24.4257812,26.4794922,0,16.3193359,11.8886719,26.5869141,24.4257812,26.5869141,5.1879883,0,11.996582-2.0532227,15.6713867-6.9169922v5.6201172h15.887207V53.0664062h-15.887207v32.9638672ZM266.4989277,117.480957c-6.2685547,0-11.6723633-5.4038086-11.6723633-11.7802734,0-6.3769531,5.4038086-11.6728516,11.6723633-11.6728516,6.0522461,0,11.5644531,5.1879883,11.5644531,11.6728516,0,6.484375-5.4038086,11.7802734-11.5644531,11.7802734Z" fill="#fff"/>
          <path id="g" d="M218.4581121,86.0302734c-3.7827148-4.7553711-10.4833984-6.809082-15.6713867-6.809082-12.5371094,0-24.4257812,10.159668-24.4257812,26.4794922,0,16.3193359,11.8886719,26.5869141,24.4257812,26.5869141,5.1879883,0,11.8886719-2.1616211,15.6713867-6.9169922v1.5131836c0,11.5644531-5.2958984,16.2114258-13.6176758,16.2114258-5.2958984,0-10.159668-3.3500977-11.9970703-7.4570312l-13.1850586,5.2958984c3.9985352,9.5107422,13.7255859,16.2114258,25.1821289,16.2114258,18.2651367,0,29.5048828-10.8076172,29.5048828-32.2070312v-44.4204102h-15.887207v5.512207ZM206.2452214,117.480957c-6.2685547,0-11.6723633-5.4038086-11.6723633-11.7802734,0-6.3769531,5.4038086-11.6728516,11.6723633-11.6728516,6.0522461,0,11.5644531,5.1879883,11.5644531,11.6728516,0,6.484375-5.4038086,11.7802734-11.5644531,11.7802734Z" fill="#fff"/>
          <path id="o-2" data-name="o" d="M147.5051871,79.2211914c-14.3745117,0-27.34375,10.5917969-27.34375,26.5874023,0,15.887207,12.9692383,26.4790039,27.34375,26.4790039s27.4516602-10.5917969,27.4516602-26.4790039c0-15.9956055-13.0771484-26.5874023-27.4516602-26.5874023ZM147.5051871,117.480957c-6.1606445,0-11.1318359-4.7553711-11.1318359-11.6723633s4.9711914-11.7807617,11.1318359-11.7807617,11.1318359,4.8637695,11.1318359,11.7807617-4.9711914,11.6723633-11.1318359,11.6723633Z" fill="#fff"/>
          <path id="b" d="M92.2231605,79.2211914c-5.1879883,0-11.8886719,2.0537109-15.5634766,6.809082v-32.9638672h-15.9956055v56.7674561c2.4969482-2.1355591,5.7323608-3.4325562,9.2755737-3.4325562,2.8226929,0,5.4466553.8295288,7.6625977,2.2421265-.2525024-.9428711-.4020386-1.9255371-.4020386-2.942749,0-6.4848633,5.6201172-11.6728516,11.6723633-11.6728516,6.2685547,0,11.6723633,5.2958984,11.6723633,11.6728516,0,6.3764648-5.4038086,11.7802734-11.6723633,11.7802734-1.9210815,0-3.7788086-.5155029-5.4262695-1.4208984.4983521,1.4536743.7817383,3.007019.7817383,4.6296997,0,3.2699585-1.1104126,6.2738037-2.958374,8.6817627,3.4399414,2.0120239,7.5249023,2.9160767,10.9534912,2.9160767,12.6450195,0,24.5336914-10.2675781,24.5336914-26.5869141,0-16.3198242-11.8886719-26.4794922-24.5336914-26.4794922Z" fill="#fff"/>
        </g>
        <path id="Herz" d="M69.939623,109.6778506c-6.0815163,0-11.0119194,4.9304034-11.0119194,11.0119194s4.9304034,11.0119194,11.0119194,11.0119194,11.0119194-4.9304031,11.0119194-11.0119194-4.9304031-11.0119194-11.0119194-11.0119194M69.939623,127.2969216c-.5032448-.6658538-7.5358238-4.728885-6.0939959-9.2566196,1.2957361-4.0644994,5.5404637-2.4215211,6.0939959-.218036.4015686-2.0684056,4.753112-3.9253823,6.0947304.2143652,1.4407258,4.4546876-5.5929537,8.7306167-6.0947304,9.2602903" fill="#fff"/>
      </g>
    </g>
  </g>
</svg>